<svg width="58" height="58" viewBox="0 0 58 58" fill="none" xmlns="http://www.w3.org/2000/svg">
<path d="M23.7629 23.0328C23.7629 23.0328 29.6994 24.6671 35.22 22.7287C43.5766 19.7641 49.3997 13.5308 51.7818 10.6422L51.2903 9.76802C50.7231 8.77982 49.4753 8.43775 48.4922 9.00786L36.5057 15.9253V2.05242C36.5057 0.912189 35.5982 0 34.4638 0H23.536C22.4017 0 21.4942 0.912189 21.4942 2.05242V15.9253L9.50769 9.00786C8.52457 8.43775 7.27676 8.77982 6.70958 9.76802L6.21802 10.6422C8.67582 13.6828 14.8392 20.2962 23.7629 23.0328ZM28.981 12.7706C31.2119 12.7706 33.0269 14.595 33.0269 16.8375C33.0269 19.0799 31.2119 20.9043 28.981 20.9043C26.7501 20.9043 24.9351 19.0799 24.9351 16.8375C24.9351 14.595 26.7501 12.7706 28.981 12.7706Z" fill="#219653"/>
<path d="M55.9792 35.8794L44.0683 29L55.9792 22.1206C56.9623 21.5505 57.3026 20.2962 56.7354 19.308L54.4289 15.2792C47.8117 17.9017 25.6537 29 31.5902 58H34.464C35.5983 58 36.5058 57.0878 36.5058 55.9476V42.0747L48.4545 48.9921C49.4376 49.5623 50.6854 49.2202 51.2526 48.232L56.6976 38.692C57.3026 37.7038 56.9623 36.4496 55.9792 35.8794Z" fill="#2F80ED"/>
<path d="M3.57134 15.2792L1.26479 19.27C0.697604 20.2582 1.03791 21.5125 2.02103 22.0826L13.9319 28.962L2.02103 35.8794C1.03791 36.4496 0.697604 37.7038 1.26479 38.692L6.70976 48.194C7.27694 49.1822 8.52475 49.5243 9.50787 48.9541L21.4565 42.0367V55.9096C21.4565 57.0498 22.364 57.962 23.4984 57.962H26.3721C32.3465 29 10.1885 17.9017 3.57134 15.2792Z" fill="#2F80ED"/>
<path d="M35.9385 25.2753C35.9006 25.1992 35.825 25.1992 35.7494 25.1992C28.376 27.4037 22.326 25.2372 22.2882 25.1992C22.2126 25.1612 22.137 25.1992 22.0992 25.2753C22.0613 25.3513 22.0613 25.4273 22.0992 25.5033C22.1748 25.5793 28.3382 35.0053 28.8676 40.0983C28.8676 40.1743 28.9432 40.2503 29.0566 40.2503C29.1322 40.2503 29.2457 40.1743 29.2457 40.0983C29.6994 34.9673 35.8628 25.5793 35.9385 25.5033C35.9763 25.4273 35.9763 25.3513 35.9385 25.2753Z" fill="url(#paint0_linear)"/>
<defs>
<linearGradient id="paint0_linear" x1="28.9967" y1="29.4527" x2="28.9967" y2="43.9961" gradientUnits="userSpaceOnUse">
<stop stop-color="#6ADBA7"/>
<stop offset="0.9868" stop-color="#3DB3C1"/>
</linearGradient>
</defs>
</svg>
